<svg xmlns="http://www.w3.org/2000/svg" viewBox="0 0 1400 760" role="img" aria-label="NAVCore analytics dashboard preview">
  <defs>
    <linearGradient id="bg" x1="0" y1="0" x2="1" y2="1">
      <stop offset="0%" stop-color="#0b1220"/>
      <stop offset="100%" stop-color="#131b2f"/>
    </linearGradient>
    <linearGradient id="panel" x1="0" y1="0" x2="1" y2="1">
      <stop offset="0%" stop-color="#17213a"/>
      <stop offset="100%" stop-color="#121a2d"/>
    </linearGradient>
    <linearGradient id="lineA" x1="0" y1="0" x2="1" y2="0">
      <stop offset="0%" stop-color="#60a5fa"/>
      <stop offset="100%" stop-color="#22d3ee"/>
    </linearGradient>
    <linearGradient id="lineB" x1="0" y1="0" x2="1" y2="0">
      <stop offset="0%" stop-color="#34d399"/>
      <stop offset="100%" stop-color="#a3e635"/>
    </linearGradient>
    <linearGradient id="lineC" x1="0" y1="0" x2="1" y2="0">
      <stop offset="0%" stop-color="#f59e0b"/>
      <stop offset="100%" stop-color="#f97316"/>
    </linearGradient>
    <filter id="softShadow" x="-20%" y="-20%" width="140%" height="140%">
      <feDropShadow dx="0" dy="8" stdDeviation="12" flood-color="#000000" flood-opacity="0.35"/>
    </filter>
  </defs>

  <rect x="0" y="0" width="1400" height="760" fill="url(#bg)"/>
  <rect x="22" y="22" width="1356" height="716" rx="18" fill="#0f172a" opacity="0.5"/>

  <rect x="48" y="44" width="1304" height="64" rx="14" fill="#0f172a"/>
  <text x="80" y="84" font-size="26" font-weight="700" font-family="Segoe UI, Arial, sans-serif" fill="#e2e8f0">NAVCore Analytics</text>
  <rect x="1048" y="59" width="120" height="34" rx="8" fill="#1e293b"/>
  <text x="1075" y="82" font-size="14" font-family="Segoe UI, Arial, sans-serif" fill="#cbd5e1">Basic</text>
  <rect x="1178" y="59" width="144" height="34" rx="8" fill="#0ea5e9"/>
  <text x="1204" y="82" font-size="14" font-family="Segoe UI, Arial, sans-serif" fill="#ffffff">Intelligent</text>

  <rect x="48" y="130" width="1304" height="180" rx="16" fill="url(#panel)" filter="url(#softShadow)"/>
  <text x="78" y="168" font-size="22" font-weight="600" font-family="Segoe UI, Arial, sans-serif" fill="#f8fafc">Overview</text>
  <text x="78" y="196" font-size="14" font-family="Segoe UI, Arial, sans-serif" fill="#94a3b8">Closing NAV and flow drivers for selected club and period</text>

  <rect x="78" y="218" width="280" height="72" rx="12" fill="#0f172a"/>
  <text x="98" y="246" font-size="13" font-family="Segoe UI, Arial, sans-serif" fill="#94a3b8">Closing NAV</text>
  <text x="98" y="274" font-size="25" font-weight="700" font-family="Segoe UI, Arial, sans-serif" fill="#e2e8f0">UGX 2,482,190,400</text>

  <rect x="374" y="218" width="220" height="72" rx="12" fill="#0f172a"/>
  <text x="394" y="246" font-size="13" font-family="Segoe UI, Arial, sans-serif" fill="#94a3b8">Net Inflow</text>
  <text x="394" y="274" font-size="24" font-weight="700" font-family="Segoe UI, Arial, sans-serif" fill="#22c55e">UGX 314,900,000</text>

  <rect x="610" y="218" width="220" height="72" rx="12" fill="#0f172a"/>
  <text x="630" y="246" font-size="13" font-family="Segoe UI, Arial, sans-serif" fill="#94a3b8">Expense Ratio</text>
  <text x="630" y="274" font-size="24" font-weight="700" font-family="Segoe UI, Arial, sans-serif" fill="#f59e0b">1.9%</text>

  <rect x="846" y="218" width="220" height="72" rx="12" fill="#0f172a"/>
  <text x="866" y="246" font-size="13" font-family="Segoe UI, Arial, sans-serif" fill="#94a3b8">Integrity</text>
  <text x="866" y="274" font-size="24" font-weight="700" font-family="Segoe UI, Arial, sans-serif" fill="#22c55e">Reconciled</text>

  <rect x="1082" y="218" width="240" height="72" rx="12" fill="#0f172a"/>
  <text x="1102" y="246" font-size="13" font-family="Segoe UI, Arial, sans-serif" fill="#94a3b8">Top Insight</text>
  <text x="1102" y="274" font-size="14" font-family="Segoe UI, Arial, sans-serif" fill="#e2e8f0">Contributions up 14.2%</text>

  <rect x="48" y="332" width="848" height="378" rx="16" fill="url(#panel)" filter="url(#softShadow)"/>
  <text x="78" y="370" font-size="20" font-weight="600" font-family="Segoe UI, Arial, sans-serif" fill="#f8fafc">NAV Trend and Attribution</text>

  <line x1="84" y1="662" x2="864" y2="662" stroke="#334155" stroke-width="1"/>
  <line x1="84" y1="596" x2="864" y2="596" stroke="#334155" stroke-width="1"/>
  <line x1="84" y1="530" x2="864" y2="530" stroke="#334155" stroke-width="1"/>
  <line x1="84" y1="464" x2="864" y2="464" stroke="#334155" stroke-width="1"/>
  <line x1="84" y1="398" x2="864" y2="398" stroke="#334155" stroke-width="1"/>

  <polyline points="98,635 184,624 270,607 356,589 442,562 528,540 614,516 700,482 786,438 852,396" fill="none" stroke="url(#lineA)" stroke-width="5" stroke-linecap="round"/>
  <polyline points="98,648 184,640 270,635 356,622 442,608 528,600 614,582 700,568 786,560 852,546" fill="none" stroke="url(#lineB)" stroke-width="4" stroke-linecap="round" opacity="0.95"/>
  <polyline points="98,655 184,651 270,645 356,640 442,634 528,631 614,626 700,620 786,612 852,606" fill="none" stroke="url(#lineC)" stroke-width="3" stroke-linecap="round" opacity="0.9"/>

  <circle cx="852" cy="396" r="7" fill="#22d3ee"/>
  <circle cx="852" cy="546" r="6" fill="#a3e635"/>
  <circle cx="852" cy="606" r="5" fill="#f97316"/>

  <text x="80" y="688" font-size="12" font-family="Segoe UI, Arial, sans-serif" fill="#64748b">Jan</text>
  <text x="168" y="688" font-size="12" font-family="Segoe UI, Arial, sans-serif" fill="#64748b">Feb</text>
  <text x="256" y="688" font-size="12" font-family="Segoe UI, Arial, sans-serif" fill="#64748b">Mar</text>
  <text x="344" y="688" font-size="12" font-family="Segoe UI, Arial, sans-serif" fill="#64748b">Apr</text>
  <text x="432" y="688" font-size="12" font-family="Segoe UI, Arial, sans-serif" fill="#64748b">May</text>
  <text x="520" y="688" font-size="12" font-family="Segoe UI, Arial, sans-serif" fill="#64748b">Jun</text>
  <text x="608" y="688" font-size="12" font-family="Segoe UI, Arial, sans-serif" fill="#64748b">Jul</text>
  <text x="696" y="688" font-size="12" font-family="Segoe UI, Arial, sans-serif" fill="#64748b">Aug</text>
  <text x="784" y="688" font-size="12" font-family="Segoe UI, Arial, sans-serif" fill="#64748b">Sep</text>

  <rect x="920" y="332" width="432" height="180" rx="16" fill="url(#panel)" filter="url(#softShadow)"/>
  <text x="948" y="370" font-size="20" font-weight="600" font-family="Segoe UI, Arial, sans-serif" fill="#f8fafc">Insight Feed</text>
  <rect x="948" y="392" width="376" height="34" rx="8" fill="#1e293b"/>
  <text x="964" y="414" font-size="13" font-family="Segoe UI, Arial, sans-serif" fill="#f8fafc">Critical: Withdrawal spike UGX 120M above baseline</text>
  <rect x="948" y="432" width="376" height="34" rx="8" fill="#1e293b"/>
  <text x="964" y="454" font-size="13" font-family="Segoe UI, Arial, sans-serif" fill="#f8fafc">Warn: Top 3 investors now represent 72.3% of NAV</text>
  <rect x="948" y="472" width="376" height="24" rx="8" fill="#172554"/>
  <text x="964" y="489" font-size="12" font-family="Segoe UI, Arial, sans-serif" fill="#93c5fd">Explainability link: /ledger?type=withdrawal&period=2026-01</text>

  <rect x="920" y="530" width="432" height="180" rx="16" fill="url(#panel)" filter="url(#softShadow)"/>
  <text x="948" y="568" font-size="20" font-weight="600" font-family="Segoe UI, Arial, sans-serif" fill="#f8fafc">Allocation Explainability</text>
  <text x="948" y="596" font-size="13" font-family="Segoe UI, Arial, sans-serif" fill="#94a3b8">Investor: INV-1042</text>
  <text x="948" y="620" font-size="13" font-family="Segoe UI, Arial, sans-serif" fill="#e2e8f0">Ownership: 18.44% | Income Share: UGX 9,220,000</text>
  <text x="948" y="642" font-size="13" font-family="Segoe UI, Arial, sans-serif" fill="#e2e8f0">Expense Share: UGX 2,980,000 | Net Alloc: UGX 6,240,000</text>
  <text x="948" y="664" font-size="13" font-family="Segoe UI, Arial, sans-serif" fill="#e2e8f0">Closing Balance: UGX 457,330,000</text>
</svg>
